<svg id="Layer_2" data-name="Layer 2" xmlns="http://www.w3.org/2000/svg" viewBox="0 0 256 256"><defs><style>.cls-1{fill:#107970;}.cls-2{fill:none;stroke:#fff;stroke-miterlimit:10;stroke-width:7.5px;}</style></defs><title>Product-Icon-HDB-256x256</title><circle class="cls-1" cx="128" cy="128" r="128"/><path class="cls-2" d="M45.17,171.13A93,93,0,0,1,34.64,128,94,94,0,0,1,36,112.29"/><path class="cls-2" d="M221.3,131.57a93.41,93.41,0,0,1-61.2,84.13"/><path class="cls-2" d="M128,34.64A93,93,0,0,1,187.39,56"/><path class="cls-2" d="M112.06,53.18a76.61,76.61,0,0,1,86.41,45"/><path class="cls-2" d="M53.23,144.17a76.66,76.66,0,0,1,14-62.61"/><path class="cls-2" d="M68.51,131.57q-0.1-1.77-.11-3.57a59.55,59.55,0,1,1,4.53,22.83"/><path class="cls-2" d="M122.21,170.32a42.74,42.74,0,0,1-33.68-58.68"/><path class="cls-2" d="M167.41,111.5a42.74,42.74,0,0,1-33.81,58.85"/><path class="cls-2" d="M94.35,101.69a42.72,42.72,0,0,1,67.24-.07"/><path class="cls-2" d="M201,150.74a76.51,76.51,0,0,1-73,53.74,77.29,77.29,0,0,1-8.93-.52"/></svg>